#define 1521708630233_width 25
#define 1521708630233_height 40
static char 1521708630233_bits[] = {
  0x00, 0xFF, 0x03, 0x00, 0x00, 0xFF, 0x03, 0x00, 0x00, 0xFF, 0x03, 0x00, 
  0x00, 0xFF, 0x03, 0x00, 0x00, 0xFF, 0x03, 0x00, 0x00, 0xFF, 0x03, 0x00, 
  0x00, 0xF8, 0x03, 0x00, 0x00, 0xF8, 0x03, 0x00, 0x00, 0xF8, 0x03, 0x00, 
  0x00, 0xF8, 0x03, 0x00, 0x00, 0xF8, 0x03, 0x00, 0x00, 0xF8, 0x03, 0x00, 
  0x00, 0xF8, 0x03, 0x00, 0x00, 0xF8, 0x03, 0x00, 0x00, 0xF8, 0x03, 0x00, 
  0x00, 0xF8, 0x03, 0x00, 0x00, 0xF8, 0x03, 0x00, 0x00, 0xF8, 0x03, 0x00, 
  0x00, 0xF8, 0x03, 0x00, 0x00, 0xF8, 0x03, 0x00, 0x00, 0xF8, 0x03, 0x00, 
  0x00, 0xF8, 0x03, 0x00, 0x00, 0xF8, 0x03, 0x00, 0x00, 0xF8, 0x03, 0x00, 
  0x00, 0xF8, 0x03, 0x00, 0x00, 0xF8, 0x03, 0x00, 0x00, 0xF8, 0x03, 0x00, 
  0x00, 0xF8, 0x03, 0x00, 0x00, 0xF8, 0x03, 0x00, 0x00, 0xF8, 0x03, 0x00, 
  0x00, 0xF8, 0x03, 0x00, 0x00, 0xF8, 0x03, 0x00, 0x00, 0xF8, 0x03, 0x00, 
  0x00, 0xF8, 0x03, 0x00, 0x00, 0xF8, 0x03, 0x00, 0x00, 0xF8, 0x03, 0x00, 
  0x00, 0xF8, 0x03, 0x00, 0x00, 0xF8, 0x03, 0x00, 0x00, 0xF8, 0x03, 0x00, 
  0x00, 0xF8, 0x03, 0x00, };
